<svg width="216" height="225" viewBox="0 0 216 225" fill="none" xmlns="http://www.w3.org/2000/svg">
<path d="M40 5.5H170C184.083 5.5 195.5 16.9167 195.5 31V147C195.5 161.083 184.083 172.5 170 172.5H40C25.9167 172.5 14.5 161.083 14.5 147V31C14.5 16.9167 25.9167 5.5 40 5.5Z" stroke="url(#paint0_linear_128_23)" stroke-width="11"/>
<path d="M20.6455 218H15.4116L14.0537 214.032H6.77637L5.41846 218H0.316406L7.56738 198.37H13.3945L20.6455 218ZM12.8276 210.433L10.415 203.393L8.00244 210.433H12.8276ZM38.6543 210.393C38.6543 211.615 38.4653 212.727 38.0874 213.729C37.7183 214.73 37.2305 215.557 36.624 216.207C35.9912 216.893 35.2749 217.411 34.4751 217.763C33.6753 218.114 32.8184 218.29 31.9043 218.29C31.0605 218.29 30.3442 218.198 29.7554 218.013C29.1665 217.837 28.5645 217.587 27.9492 217.262V223.432H23.2031V203.195H27.9492V204.737C28.6787 204.157 29.4214 203.687 30.1772 203.327C30.9419 202.966 31.8208 202.786 32.814 202.786C34.6597 202.786 36.0923 203.463 37.1118 204.816C38.1401 206.17 38.6543 208.029 38.6543 210.393ZM33.7632 210.485C33.7632 209.044 33.5171 207.998 33.0249 207.348C32.5327 206.697 31.7549 206.372 30.6914 206.372C30.2432 206.372 29.7817 206.442 29.3071 206.583C28.8325 206.715 28.3799 206.908 27.9492 207.163V214.612C28.2656 214.735 28.604 214.814 28.9644 214.849C29.3247 214.884 29.6807 214.902 30.0322 214.902C31.2891 214.902 32.2251 214.537 32.8403 213.808C33.4556 213.069 33.7632 211.962 33.7632 210.485ZM57.5332 210.393C57.5332 211.615 57.3442 212.727 56.9663 213.729C56.5972 214.73 56.1094 215.557 55.5029 216.207C54.8701 216.893 54.1538 217.411 53.354 217.763C52.5542 218.114 51.6973 218.29 50.7832 218.29C49.9395 218.29 49.2231 218.198 48.6343 218.013C48.0454 217.837 47.4434 217.587 46.8281 217.262V223.432H42.082V203.195H46.8281V204.737C47.5576 204.157 48.3003 203.687 49.0562 203.327C49.8208 202.966 50.6997 202.786 51.6929 202.786C53.5386 202.786 54.9712 203.463 55.9907 204.816C57.019 206.17 57.5332 208.029 57.5332 210.393ZM52.6421 210.485C52.6421 209.044 52.396 207.998 51.9038 207.348C51.4116 206.697 50.6338 206.372 49.5703 206.372C49.1221 206.372 48.6606 206.442 48.186 206.583C47.7114 206.715 47.2588 206.908 46.8281 207.163V214.612C47.1445 214.735 47.4829 214.814 47.8433 214.849C48.2036 214.884 48.5596 214.902 48.9111 214.902C50.168 214.902 51.104 214.537 51.7192 213.808C52.3345 213.069 52.6421 211.962 52.6421 210.485ZM66.063 218H61.1323V212.819H66.063V218ZM90.0703 208.191C90.0703 211.32 89.1738 213.808 87.3809 215.653C85.5879 217.49 83.1094 218.409 79.9453 218.409C76.79 218.409 74.3159 217.49 72.5229 215.653C70.73 213.808 69.8335 211.32 69.8335 208.191C69.8335 205.036 70.73 202.544 72.5229 200.716C74.3159 198.879 76.79 197.961 79.9453 197.961C83.0918 197.961 85.5659 198.879 87.3677 200.716C89.1694 202.544 90.0703 205.036 90.0703 208.191ZM83.3599 213.162C83.8521 212.564 84.2168 211.861 84.4541 211.052C84.6914 210.235 84.8101 209.277 84.8101 208.178C84.8101 207 84.6738 205.999 84.4014 205.172C84.1289 204.346 83.7729 203.678 83.3335 203.168C82.8853 202.641 82.3667 202.259 81.7778 202.021C81.1978 201.784 80.5913 201.666 79.9585 201.666C79.3169 201.666 78.7104 201.78 78.1392 202.008C77.5767 202.237 77.0581 202.615 76.5835 203.142C76.144 203.634 75.7837 204.315 75.5024 205.186C75.23 206.047 75.0938 207.049 75.0938 208.191C75.0938 209.36 75.2256 210.358 75.4893 211.184C75.7617 212.001 76.1177 212.669 76.5571 213.188C76.9966 213.707 77.5107 214.089 78.0996 214.335C78.6885 214.581 79.3081 214.704 79.9585 214.704C80.6089 214.704 81.2285 214.581 81.8174 214.335C82.4062 214.08 82.9204 213.689 83.3599 213.162ZM98.4287 218H93.6826V197.486H98.4287V218ZM107.657 218H102.911V197.486H107.657V218ZM121.104 214.137V211.052C120.463 211.105 119.769 211.18 119.021 211.276C118.274 211.364 117.708 211.47 117.321 211.593C116.846 211.742 116.481 211.962 116.227 212.252C115.98 212.533 115.857 212.907 115.857 213.373C115.857 213.68 115.884 213.931 115.937 214.124C115.989 214.317 116.121 214.502 116.332 214.678C116.534 214.854 116.776 214.985 117.057 215.073C117.338 215.152 117.778 215.192 118.375 215.192C118.85 215.192 119.329 215.095 119.812 214.902C120.305 214.708 120.735 214.454 121.104 214.137ZM121.104 216.431C120.85 216.625 120.533 216.857 120.155 217.13C119.777 217.402 119.421 217.618 119.087 217.776C118.622 217.987 118.138 218.141 117.637 218.237C117.136 218.343 116.587 218.396 115.989 218.396C114.583 218.396 113.405 217.96 112.456 217.09C111.507 216.22 111.032 215.108 111.032 213.755C111.032 212.674 111.274 211.791 111.757 211.105C112.241 210.419 112.926 209.879 113.814 209.483C114.693 209.088 115.783 208.807 117.083 208.64C118.384 208.473 119.733 208.35 121.131 208.271V208.191C121.131 207.374 120.797 206.812 120.129 206.504C119.461 206.188 118.477 206.029 117.176 206.029C116.394 206.029 115.559 206.17 114.671 206.451C113.783 206.724 113.146 206.935 112.759 207.084H112.324V203.511C112.825 203.379 113.638 203.226 114.763 203.05C115.897 202.865 117.031 202.773 118.165 202.773C120.863 202.773 122.81 203.19 124.005 204.025C125.209 204.852 125.811 206.152 125.811 207.928V218H121.104V216.431ZM143.042 213.307C143.042 214.836 142.356 216.071 140.985 217.011C139.614 217.943 137.738 218.409 135.356 218.409C134.038 218.409 132.842 218.286 131.77 218.04C130.698 217.793 129.836 217.521 129.186 217.222V213.32H129.621C129.858 213.487 130.131 213.671 130.438 213.874C130.755 214.067 131.199 214.278 131.77 214.506C132.262 214.708 132.82 214.884 133.444 215.034C134.068 215.174 134.736 215.245 135.448 215.245C136.38 215.245 137.07 215.144 137.518 214.941C137.966 214.73 138.19 214.423 138.19 214.019C138.19 213.658 138.059 213.399 137.795 213.241C137.531 213.074 137.03 212.916 136.292 212.766C135.94 212.687 135.461 212.604 134.855 212.516C134.257 212.419 133.712 212.305 133.22 212.173C131.875 211.821 130.878 211.276 130.228 210.538C129.577 209.791 129.252 208.864 129.252 207.756C129.252 206.333 129.924 205.15 131.269 204.21C132.623 203.261 134.468 202.786 136.806 202.786C137.914 202.786 138.973 202.9 139.983 203.129C141.003 203.349 141.798 203.586 142.37 203.841V207.585H141.961C141.258 207.102 140.454 206.71 139.548 206.412C138.652 206.104 137.742 205.95 136.819 205.95C136.055 205.95 135.409 206.056 134.881 206.267C134.363 206.478 134.104 206.776 134.104 207.163C134.104 207.515 134.222 207.783 134.459 207.967C134.697 208.152 135.255 208.336 136.134 208.521C136.617 208.618 137.136 208.714 137.689 208.811C138.252 208.899 138.814 209.013 139.377 209.154C140.625 209.479 141.548 209.993 142.146 210.696C142.743 211.391 143.042 212.261 143.042 213.307Z" fill="#0D494F"/>
<path d="M164.571 218.382C163.112 218.382 161.763 218.167 160.523 217.736C159.293 217.306 158.234 216.664 157.346 215.812C156.458 214.959 155.769 213.896 155.276 212.621C154.793 211.347 154.551 209.875 154.551 208.205C154.551 206.649 154.784 205.238 155.25 203.973C155.716 202.707 156.393 201.622 157.28 200.716C158.133 199.846 159.188 199.174 160.444 198.699C161.71 198.225 163.09 197.987 164.584 197.987C165.41 197.987 166.153 198.036 166.812 198.132C167.48 198.22 168.095 198.339 168.658 198.488C169.247 198.655 169.778 198.844 170.253 199.055C170.736 199.257 171.158 199.446 171.519 199.622V204.381H170.938C170.692 204.17 170.38 203.92 170.002 203.63C169.633 203.34 169.211 203.054 168.737 202.773C168.253 202.492 167.73 202.254 167.168 202.061C166.605 201.868 166.003 201.771 165.362 201.771C164.65 201.771 163.973 201.885 163.332 202.114C162.69 202.333 162.097 202.703 161.552 203.221C161.033 203.722 160.611 204.386 160.286 205.212C159.97 206.038 159.812 207.04 159.812 208.218C159.812 209.448 159.983 210.477 160.326 211.303C160.677 212.129 161.117 212.779 161.644 213.254C162.18 213.737 162.778 214.084 163.437 214.295C164.096 214.498 164.747 214.599 165.388 214.599C166.003 214.599 166.61 214.506 167.208 214.322C167.814 214.137 168.372 213.887 168.882 213.57C169.312 213.315 169.712 213.043 170.082 212.753C170.451 212.463 170.754 212.212 170.991 212.001H171.519V216.695C171.026 216.915 170.556 217.121 170.108 217.314C169.66 217.508 169.189 217.675 168.697 217.815C168.056 218 167.454 218.141 166.891 218.237C166.329 218.334 165.555 218.382 164.571 218.382ZM190.107 210.604C190.107 213.039 189.396 214.959 187.972 216.365C186.557 217.763 184.566 218.461 182 218.461C179.433 218.461 177.438 217.763 176.014 216.365C174.599 214.959 173.892 213.039 173.892 210.604C173.892 208.152 174.604 206.227 176.027 204.83C177.46 203.432 179.451 202.733 182 202.733C184.583 202.733 186.579 203.437 187.985 204.843C189.4 206.249 190.107 208.169 190.107 210.604ZM184.267 214.203C184.575 213.825 184.803 213.373 184.953 212.845C185.111 212.309 185.19 211.571 185.19 210.63C185.19 209.76 185.111 209.031 184.953 208.442C184.794 207.853 184.575 207.383 184.293 207.031C184.012 206.671 183.674 206.416 183.278 206.267C182.883 206.117 182.457 206.042 182 206.042C181.542 206.042 181.134 206.104 180.773 206.227C180.422 206.35 180.083 206.596 179.758 206.965C179.468 207.308 179.235 207.778 179.06 208.376C178.893 208.974 178.809 209.725 178.809 210.63C178.809 211.439 178.884 212.142 179.033 212.74C179.183 213.329 179.402 213.803 179.692 214.164C179.974 214.506 180.308 214.757 180.694 214.915C181.09 215.073 181.538 215.152 182.039 215.152C182.47 215.152 182.878 215.082 183.265 214.941C183.661 214.792 183.995 214.546 184.267 214.203ZM198.255 218H193.509V197.486H198.255V218Z" fill="url(#paint1_linear_128_23)"/>
<path d="M207.839 218H202.909V212.819H207.839V218Z" fill="black"/>
<path d="M66 66C66 65.4477 66.4477 65 67 65H149C149.552 65 150 65.4477 150 66V143C150 149.075 145.075 154 139 154H77C70.9249 154 66 149.075 66 143V66Z" fill="url(#paint2_linear_128_23)"/>
<path d="M110.047 28.8414C90.9318 25.2856 74.2215 32.6506 65.2662 37.9053C62.363 39.6089 63.2412 43.5845 66.5391 44.2592L146.313 60.5793C149.369 61.2045 151.783 58.2992 150.193 55.6159C144.678 46.308 132.549 33.0271 110.047 28.8414Z" fill="url(#paint3_linear_128_23)"/>
<path d="M112.493 22.954C112.729 21.8748 113.794 21.191 114.874 21.4266L115.851 21.6398C116.93 21.8754 117.614 22.9412 117.378 24.0204L115.885 30.8593L111 29.7929L112.493 22.954Z" fill="url(#paint4_linear_128_23)"/>
<path d="M50 79C50 77.8954 50.8954 77 52 77H66V83H52C50.8954 83 50 82.1046 50 81V79Z" fill="url(#paint5_linear_128_23)"/>
<path d="M150 77H164C165.105 77 166 77.8954 166 79V81C166 82.1046 165.105 83 164 83H150V77Z" fill="url(#paint6_linear_128_23)"/>
<defs>
<linearGradient id="paint0_linear_128_23" x1="201" y1="0" x2="9" y2="178" gradientUnits="userSpaceOnUse">
<stop stop-color="#3FA5AE"/>
<stop offset="1" stop-color="#094349"/>
</linearGradient>
<linearGradient id="paint1_linear_128_23" x1="123.822" y1="217.093" x2="169.273" y2="178.659" gradientUnits="userSpaceOnUse">
<stop stop-color="#04353A"/>
<stop offset="1" stop-color="#02A0AE"/>
</linearGradient>
<linearGradient id="paint2_linear_128_23" x1="61.8785" y1="159.75" x2="181.959" y2="92.7183" gradientUnits="userSpaceOnUse">
<stop stop-color="#04272A"/>
<stop offset="1" stop-color="#1CD4E3"/>
</linearGradient>
<linearGradient id="paint3_linear_128_23" x1="72.6867" y1="63.622" x2="146.994" y2="32.6423" gradientUnits="userSpaceOnUse">
<stop stop-color="#0D3A3E"/>
<stop offset="1" stop-color="#55D5E0"/>
</linearGradient>
<linearGradient id="paint4_linear_128_23" x1="115.362" y1="21.5332" x2="113.442" y2="30.3261" gradientUnits="userSpaceOnUse">
<stop stop-color="#39979F"/>
<stop offset="1" stop-color="#38979F"/>
</linearGradient>
<linearGradient id="paint5_linear_128_23" x1="-28.5" y1="80" x2="66" y2="80" gradientUnits="userSpaceOnUse">
<stop stop-color="#043C41"/>
<stop offset="1" stop-color="#0C5D64"/>
</linearGradient>
<linearGradient id="paint6_linear_128_23" x1="145" y1="83" x2="169" y2="80" gradientUnits="userSpaceOnUse">
<stop stop-color="#19B8C6"/>
<stop offset="1" stop-color="#19B8C6"/>
</linearGradient>
</defs>
</svg>
